ffmpeg started on 2025-05-12 at 21:11:50
Report written to "D:\Convert\FFMetrics\reports\ssim_report-6.txt"
Log level: 32
Command line:
ffmpeg -hide_banner -nostdin -i "G:\\\xc0\xed\xe8\xec\xe5\\\xce\xed\xe3\xee\xe8\xed\xe3\xe8\\!_35_\xcb\xe5\xf2\xee_2024\\DreamCast-1\\\xd1\xe0\xec\xfb\xe9 \xf1\xe8\xeb\xfc\xed\xfb\xe9 \xe2\xee\xeb\xf8\xe5\xe1\xed\xe8\xea \xe0\xf0\xec\xe8\xe8 \xef\xee\xe2\xe5\xeb\xe8\xf2\xe5\xeb\xff \xe4\xe5\xec\xee\xed\xee\xe2 \xee\xea\xe0\xe7\xe0\xeb\xf1\xff \xf7\xe5\xeb\xee\xe2\xe5\xea\xee\xec\\DC_Maou_Gun_Saikyou_no_Majutsushi_wa_Ningen_datta_03_Telegram_HEVC.mkv" -i "G:\\\xc0\xed\xe8\xec\xe5\\\xce\xed\xe3\xee\xe8\xed\xe3\xe8\\!_35_\xcb\xe5\xf2\xee_2024\\DreamCast-1\\\xd1\xe0\xec\xfb\xe9 \xf1\xe8\xeb\xfc\xed\xfb\xe9 \xe2\xee\xeb\xf8\xe5\xe1\xed\xe8\xea \xe0\xf0\xec\xe8\xe8 \xef\xee\xe2\xe5\xeb\xe8\xf2\xe5\xeb\xff \xe4\xe5\xec\xee\xed\xee\xe2 \xee\xea\xe0\xe7\xe0\xeb\xf1\xff \xf7\xe5\xeb\xee\xe2\xe5\xea\xee\xec\\DC_Maou_Gun_Saikyou_no_Majutsushi_wa_Ningen_datta_03_Telegram.mp4" -lavfi "[0:v]settb=AVTB,setpts=PTS-STARTPTS,format=pix_fmts=yuv420p10,fps=24000/1001,scale=1920:1080:flags=bicubic[main];[1:v]settb=AVTB,setpts=PTS-STARTPTS,format=pix_fmts=yuv420p,fps=24000/1001,scale=1920:1080:flags=bicubic[ref];[main][ref]ssim=eof_action=endall:stats_file='D\\:/Convert/FFMetrics/logs/ssim_logfile-6.txt'" -f null -
Input #0, matroska,webm, from 'G:\Аниме\Онгоинги\!_35_Лето_2024\DreamCast-1\Самый сильный волшебник армии повелителя демонов оказался человеком\DC_Maou_Gun_Saikyou_no_Majutsushi_wa_Ningen_datta_03_Telegram_HEVC.mkv':
  Metadata:
    COMPATIBLE_BRANDS: isomiso2avc1mp41
    MAJOR_BRAND     : isom
    MINOR_VERSION   : 512
    ENCODER         : Lavf61.7.100
  Duration: 00:23:46.77, start: -0.021000, bitrate: 871 kb/s
  Stream #0:0: Video: hevc (Main 10), yuv420p10le(tv, bt709, progressive), 1920x1080 [SAR 1:1 DAR 16:9], 23.98 fps, 23.98 tbr, 1k tbn (default)
      Metadata:
        HANDLER_NAME    : VideoHandler
        VENDOR_ID       : [0][0][0][0]
        ENCODER         : Lavc61.19.100 libx265
        BPS             : 674088
        DURATION        : 00:23:46.591708333
        NUMBER_OF_FRAMES: 34204
        NUMBER_OF_BYTES : 120206100
        _STATISTICS_WRITING_APP: mkvpropedit v66.0.0 ('Josie') 64-bit
        _STATISTICS_WRITING_DATE_UTC: 2025-05-10 15:15:58
        _STATISTICS_TAGS: BPS DURATION NUMBER_OF_FRAMES NUMBER_OF_BYTES
  Stream #0:1: Audio: aac (LC), 48000 Hz, stereo, fltp (default)
      Metadata:
        HANDLER_NAME    : SoundHandler
        VENDOR_ID       : [0][0][0][0]
        ENCODER         : Lavc61.19.100 aac
        BPS             : 193502
        DURATION        : 00:23:46.773000000
        NUMBER_OF_FRAMES: 66881
        NUMBER_OF_BYTES : 34510458
        _STATISTICS_WRITING_APP: mkvpropedit v66.0.0 ('Josie') 64-bit
        _STATISTICS_WRITING_DATE_UTC: 2025-05-10 15:15:58
        _STATISTICS_TAGS: BPS DURATION NUMBER_OF_FRAMES NUMBER_OF_BYTES
Input #1, mov,mp4,m4a,3gp,3g2,mj2, from 'G:\Аниме\Онгоинги\!_35_Лето_2024\DreamCast-1\Самый сильный волшебник армии повелителя демонов оказался человеком\DC_Maou_Gun_Saikyou_no_Majutsushi_wa_Ningen_datta_03_Telegram.mp4':
  Metadata:
    major_brand     : isom
    minor_version   : 512
    compatible_brands: isomiso2avc1mp41
    encoder         : Lavf61.1.100
  Duration: 00:23:46.72, start: 0.000000, bitrate: 3425 kb/s
  Stream #1:0[0x1](und): Video: h264 (High) (avc1 / 0x31637661), yuv420p(tv, bt709, progressive), 1920x1080 [SAR 1:1 DAR 16:9], 3277 kb/s, 23.98 fps, 23.98 tbr, 24k tbn (default)
      Metadata:
        handler_name    : VideoHandler
        vendor_id       : [0][0][0][0]
        encoder         : Lavc61.3.100 h264_qsv
  Stream #1:1[0x2](und): Audio: aac (HE-AACv2) (mp4a / 0x6134706D), 48000 Hz, stereo, fltp, 144 kb/s (default)
      Metadata:
        handler_name    : SoundHandler
        vendor_id       : [0][0][0][0]
Stream mapping:
  Stream #0:0 (hevc) -> settb:default
  Stream #1:0 (h264) -> settb:default
  ssim:default -> Stream #0:0 (wrapped_avframe)
  Stream #0:1 -> #0:1 (aac (native) -> pcm_s16le (native))
Output #0, null, to 'pipe:':
  Metadata:
    COMPATIBLE_BRANDS: isomiso2avc1mp41
    MAJOR_BRAND     : isom
    MINOR_VERSION   : 512
    encoder         : Lavf61.7.100
  Stream #0:0: Video: wrapped_avframe, yuv420p10le(tv, bt709, progressive), 1920x1080 [SAR 1:1 DAR 16:9], q=2-31, 200 kb/s, 23.98 fps, 23.98 tbn
      Metadata:
        encoder         : Lavc61.19.100 wrapped_avframe
  Stream #0:1: Audio: pcm_s16le, 48000 Hz, stereo, s16, 1536 kb/s (default)
      Metadata:
        HANDLER_NAME    : SoundHandler
        VENDOR_ID       : [0][0][0][0]
        _STATISTICS_TAGS: BPS DURATION NUMBER_OF_FRAMES NUMBER_OF_BYTES
        BPS             : 193502
        DURATION        : 00:23:46.773000000
        NUMBER_OF_FRAMES: 66881
        NUMBER_OF_BYTES : 34510458
        _STATISTICS_WRITING_APP: mkvpropedit v66.0.0 ('Josie') 64-bit
        _STATISTICS_WRITING_DATE_UTC: 2025-05-10 15:15:58
        encoder         : Lavc61.19.100 pcm_s16le
frame=  155 fps=0.0 q=-0.0 size=N/A time=00:00:06.46 bitrate=N/A speed=12.5x    frame=  360 fps=348 q=-0.0 size=N/A time=00:00:15.01 bitrate=N/A speed=14.5x    frame=  605 fps=394 q=-0.0 size=N/A time=00:00:25.23 bitrate=N/A speed=16.4x    frame=  863 fps=419 q=-0.0 size=N/A time=00:00:35.99 bitrate=N/A speed=17.5x    frame= 1128 fps=437 q=-0.0 size=N/A time=00:00:47.04 bitrate=N/A speed=18.2x    frame= 1386 fps=449 q=-0.0 size=N/A time=00:00:57.80 bitrate=N/A speed=18.7x    frame= 1647 fps=457 q=-0.0 size=N/A time=00:01:08.69 bitrate=N/A speed=  19x    frame= 1836 fps=445 q=-0.0 size=N/A time=00:01:16.57 bitrate=N/A speed=18.5x    frame= 2080 fps=449 q=-0.0 size=N/A time=00:01:26.75 bitrate=N/A speed=18.7x    frame= 2321 fps=450 q=-0.0 size=N/A time=00:01:36.80 bitrate=N/A speed=18.8x    frame= 2535 fps=447 q=-0.0 size=N/A time=00:01:45.73 bitrate=N/A speed=18.7x    frame= 2721 fps=440 q=-0.0 size=N/A time=00:01:53.48 bitrate=N/A speed=18.3x    frame= 2945 fps=440 q=-0.0 size=N/A time=00:02:02.83 bitrate=N/A speed=18.3x    frame= 3204 fps=444 q=-0.0 size=N/A time=00:02:13.63 bitrate=N/A speed=18.5x    frame= 3414 fps=441 q=-0.0 size=N/A time=00:02:22.39 bitrate=N/A speed=18.4x    frame= 3624 fps=439 q=-0.0 size=N/A time=00:02:31.15 bitrate=N/A speed=18.3x    frame= 3810 fps=435 q=-0.0 size=N/A time=00:02:38.90 bitrate=N/A speed=18.1x    frame= 4040 fps=435 q=-0.0 size=N/A time=00:02:48.50 bitrate=N/A speed=18.2x    frame= 4274 fps=436 q=-0.0 size=N/A time=00:02:58.26 bitrate=N/A speed=18.2x    frame= 4534 fps=439 q=-0.0 size=N/A time=00:03:09.10 bitrate=N/A speed=18.3x    frame= 4759 fps=440 q=-0.0 size=N/A time=00:03:18.48 bitrate=N/A speed=18.3x    frame= 5019 fps=442 q=-0.0 size=N/A time=00:03:29.33 bitrate=N/A speed=18.4x    frame= 5263 fps=444 q=-0.0 size=N/A time=00:03:39.51 bitrate=N/A speed=18.5x    frame= 5530 fps=447 q=-0.0 size=N/A time=00:03:50.64 bitrate=N/A speed=18.6x    frame= 5800 fps=450 q=-0.0 size=N/A time=00:04:01.90 bitrate=N/A speed=18.8x    frame= 6068 fps=453 q=-0.0 size=N/A time=00:04:13.08 bitrate=N/A speed=18.9x    frame= 6326 fps=454 q=-0.0 size=N/A time=00:04:23.84 bitrate=N/A speed=18.9x    frame= 6597 fps=457 q=-0.0 size=N/A time=00:04:35.14 bitrate=N/A speed=19.1x    frame= 6852 fps=458 q=-0.0 size=N/A time=00:04:45.78 bitrate=N/A speed=19.1x    frame= 7110 fps=460 q=-0.0 size=N/A time=00:04:56.54 bitrate=N/A speed=19.2x    frame= 7376 fps=461 q=-0.0 size=N/A time=00:05:07.64 bitrate=N/A speed=19.2x    frame= 7641 fps=463 q=-0.0 size=N/A time=00:05:18.69 bitrate=N/A speed=19.3x    frame= 7886 fps=464 q=-0.0 size=N/A time=00:05:28.91 bitrate=N/A speed=19.3x    frame= 8139 fps=464 q=-0.0 size=N/A time=00:05:39.46 bitrate=N/A speed=19.4x    frame= 8402 fps=465 q=-0.0 size=N/A time=00:05:50.43 bitrate=N/A speed=19.4x    frame= 8653 fps=466 q=-0.0 size=N/A time=00:06:00.90 bitrate=N/A speed=19.4x    frame= 8922 fps=468 q=-0.0 size=N/A time=00:06:12.12 bitrate=N/A speed=19.5x    frame= 9182 fps=469 q=-0.0 size=N/A time=00:06:22.96 bitrate=N/A speed=19.6x    frame= 9451 fps=470 q=-0.0 size=N/A time=00:06:34.18 bitrate=N/A speed=19.6x    frame= 9709 fps=471 q=-0.0 size=N/A time=00:06:44.94 bitrate=N/A speed=19.6x    frame= 9970 fps=472 q=-0.0 size=N/A time=00:06:55.83 bitrate=N/A speed=19.7x    frame=10232 fps=472 q=-0.0 size=N/A time=00:07:06.75 bitrate=N/A speed=19.7x    frame=10507 fps=474 q=-0.0 size=N/A time=00:07:18.22 bitrate=N/A speed=19.8x    frame=10743 fps=474 q=-0.0 size=N/A time=00:07:28.07 bitrate=N/A speed=19.8x    frame=10895 fps=470 q=-0.0 size=N/A time=00:07:34.41 bitrate=N/A speed=19.6x    frame=11160 fps=471 q=-0.0 size=N/A time=00:07:45.46 bitrate=N/A speed=19.6x    frame=11421 fps=471 q=-0.0 size=N/A time=00:07:56.35 bitrate=N/A speed=19.7x    frame=11691 fps=472 q=-0.0 size=N/A time=00:08:07.61 bitrate=N/A speed=19.7x    frame=11959 fps=473 q=-0.0 size=N/A time=00:08:18.78 bitrate=N/A speed=19.7x    frame=12238 fps=475 q=-0.0 size=N/A time=00:08:30.42 bitrate=N/A speed=19.8x    frame=12505 fps=475 q=-0.0 size=N/A time=00:08:41.56 bitrate=N/A speed=19.8x    frame=12789 fps=477 q=-0.0 size=N/A time=00:08:53.40 bitrate=N/A speed=19.9x    frame=13055 fps=478 q=-0.0 size=N/A time=00:09:04.50 bitrate=N/A speed=19.9x    frame=13335 fps=479 q=-0.0 size=N/A time=00:09:16.18 bitrate=N/A speed=  20x    frame=13582 fps=479 q=-0.0 size=N/A time=00:09:26.48 bitrate=N/A speed=  20x    frame=13826 fps=479 q=-0.0 size=N/A time=00:09:36.65 bitrate=N/A speed=  20x    frame=14080 fps=479 q=-0.0 size=N/A time=00:09:47.25 bitrate=N/A speed=  20x    frame=14341 fps=479 q=-0.0 size=N/A time=00:09:58.13 bitrate=N/A speed=  20x    frame=14601 fps=480 q=-0.0 size=N/A time=00:10:08.98 bitrate=N/A speed=  20x    frame=14862 fps=480 q=-0.0 size=N/A time=00:10:19.86 bitrate=N/A speed=  20x    frame=15130 fps=481 q=-0.0 size=N/A time=00:10:31.04 bitrate=N/A speed=20.1x    frame=15391 fps=481 q=-0.0 size=N/A time=00:10:41.93 bitrate=N/A speed=20.1x    frame=15624 fps=481 q=-0.0 size=N/A time=00:10:51.65 bitrate=N/A speed=20.1x    frame=15880 fps=481 q=-0.0 size=N/A time=00:11:02.32 bitrate=N/A speed=20.1x    frame=16133 fps=481 q=-0.0 size=N/A time=00:11:12.88 bitrate=N/A speed=20.1x    frame=16402 fps=482 q=-0.0 size=N/A time=00:11:24.10 bitrate=N/A speed=20.1x    frame=16664 fps=482 q=-0.0 size=N/A time=00:11:35.02 bitrate=N/A speed=20.1x    frame=16938 fps=483 q=-0.0 size=N/A time=00:11:46.45 bitrate=N/A speed=20.1x    frame=17205 fps=483 q=-0.0 size=N/A time=00:11:57.59 bitrate=N/A speed=20.2x    frame=17461 fps=484 q=-0.0 size=N/A time=00:12:08.26 bitrate=N/A speed=20.2x    frame=17709 fps=484 q=-0.0 size=N/A time=00:12:18.61 bitrate=N/A speed=20.2x    frame=17996 fps=484 q=-0.0 size=N/A time=00:12:30.58 bitrate=N/A speed=20.2x    frame=18253 fps=485 q=-0.0 size=N/A time=00:12:41.30 bitrate=N/A speed=20.2x    frame=18528 fps=485 q=-0.0 size=N/A time=00:12:52.77 bitrate=N/A speed=20.2x    frame=18805 fps=486 q=-0.0 size=N/A time=00:13:04.32 bitrate=N/A speed=20.3x    frame=19052 fps=486 q=-0.0 size=N/A time=00:13:14.62 bitrate=N/A speed=20.3x    frame=19288 fps=486 q=-0.0 size=N/A time=00:13:24.47 bitrate=N/A speed=20.3x    frame=19531 fps=485 q=-0.0 size=N/A time=00:13:34.60 bitrate=N/A speed=20.2x    frame=19783 fps=486 q=-0.0 size=N/A time=00:13:45.11 bitrate=N/A speed=20.3x    frame=20053 fps=486 q=-0.0 size=N/A time=00:13:56.37 bitrate=N/A speed=20.3x    frame=20323 fps=486 q=-0.0 size=N/A time=00:14:07.63 bitrate=N/A speed=20.3x    frame=20586 fps=487 q=-0.0 size=N/A time=00:14:18.60 bitrate=N/A speed=20.3x    frame=20855 fps=487 q=-0.0 size=N/A time=00:14:29.82 bitrate=N/A speed=20.3x    frame=21093 fps=487 q=-0.0 size=N/A time=00:14:39.75 bitrate=N/A speed=20.3x    frame=21309 fps=486 q=-0.0 size=N/A time=00:14:48.76 bitrate=N/A speed=20.3x    frame=21535 fps=485 q=-0.0 size=N/A time=00:14:58.18 bitrate=N/A speed=20.2x    frame=21757 fps=485 q=-0.0 size=N/A time=00:15:07.44 bitrate=N/A speed=20.2x    frame=21993 fps=485 q=-0.0 size=N/A time=00:15:17.29 bitrate=N/A speed=20.2x    frame=22235 fps=484 q=-0.0 size=N/A time=00:15:27.38 bitrate=N/A speed=20.2x    frame=22463 fps=484 q=-0.0 size=N/A time=00:15:36.89 bitrate=N/A speed=20.2x    frame=22709 fps=484 q=-0.0 size=N/A time=00:15:47.15 bitrate=N/A speed=20.2x    frame=22966 fps=484 q=-0.0 size=N/A time=00:15:57.87 bitrate=N/A speed=20.2x    frame=23166 fps=483 q=-0.0 size=N/A time=00:16:06.21 bitrate=N/A speed=20.1x    frame=23398 fps=483 q=-0.0 size=N/A time=00:16:15.89 bitrate=N/A speed=20.1x    frame=23664 fps=483 q=-0.0 size=N/A time=00:16:26.98 bitrate=N/A speed=20.1x    frame=23892 fps=483 q=-0.0 size=N/A time=00:16:36.49 bitrate=N/A speed=20.1x    frame=24141 fps=482 q=-0.0 size=N/A time=00:16:46.88 bitrate=N/A speed=20.1x    frame=24354 fps=482 q=-0.0 size=N/A time=00:16:55.76 bitrate=N/A speed=20.1x    frame=24595 fps=482 q=-0.0 size=N/A time=00:17:05.81 bitrate=N/A speed=20.1x    frame=24864 fps=482 q=-0.0 size=N/A time=00:17:17.03 bitrate=N/A speed=20.1x    frame=25120 fps=482 q=-0.0 size=N/A time=00:17:27.71 bitrate=N/A speed=20.1x    frame=25325 fps=481 q=-0.0 size=N/A time=00:17:36.26 bitrate=N/A speed=20.1x    frame=25540 fps=481 q=-0.0 size=N/A time=00:17:45.23 bitrate=N/A speed=20.1x    frame=25762 fps=480 q=-0.0 size=N/A time=00:17:54.49 bitrate=N/A speed=  20x    frame=26019 fps=480 q=-0.0 size=N/A time=00:18:05.20 bitrate=N/A speed=  20x    frame=26277 fps=481 q=-0.0 size=N/A time=00:18:15.96 bitrate=N/A speed=  20x    frame=26538 fps=481 q=-0.0 size=N/A time=00:18:26.85 bitrate=N/A speed=20.1x    frame=26787 fps=481 q=-0.0 size=N/A time=00:18:37.24 bitrate=N/A speed=20.1x    frame=27029 fps=481 q=-0.0 size=N/A time=00:18:47.33 bitrate=N/A speed=20.1x    frame=27279 fps=481 q=-0.0 size=N/A time=00:18:57.76 bitrate=N/A speed=20.1x    frame=27528 fps=481 q=-0.0 size=N/A time=00:19:08.14 bitrate=N/A speed=20.1x    frame=27781 fps=481 q=-0.0 size=N/A time=00:19:18.69 bitrate=N/A speed=20.1x    frame=28037 fps=481 q=-0.0 size=N/A time=00:19:29.37 bitrate=N/A speed=20.1x    frame=28300 fps=481 q=-0.0 size=N/A time=00:19:40.34 bitrate=N/A speed=20.1x    frame=28575 fps=482 q=-0.0 size=N/A time=00:19:51.81 bitrate=N/A speed=20.1x    frame=28802 fps=481 q=-0.0 size=N/A time=00:20:01.28 bitrate=N/A speed=20.1x    frame=29043 fps=481 q=-0.0 size=N/A time=00:20:11.33 bitrate=N/A speed=20.1x    frame=29271 fps=481 q=-0.0 size=N/A time=00:20:20.84 bitrate=N/A speed=20.1x    frame=29525 fps=481 q=-0.0 size=N/A time=00:20:31.43 bitrate=N/A speed=20.1x    frame=29795 fps=481 q=-0.0 size=N/A time=00:20:42.69 bitrate=N/A speed=20.1x    frame=30048 fps=482 q=-0.0 size=N/A time=00:20:53.25 bitrate=N/A speed=20.1x    frame=30311 fps=482 q=-0.0 size=N/A time=00:21:04.22 bitrate=N/A speed=20.1x    frame=30559 fps=482 q=-0.0 size=N/A time=00:21:14.56 bitrate=N/A speed=20.1x    frame=30816 fps=482 q=-0.0 size=N/A time=00:21:25.28 bitrate=N/A speed=20.1x    frame=31077 fps=482 q=-0.0 size=N/A time=00:21:36.16 bitrate=N/A speed=20.1x    frame=31325 fps=482 q=-0.0 size=N/A time=00:21:46.51 bitrate=N/A speed=20.1x    frame=31584 fps=482 q=-0.0 size=N/A time=00:21:57.31 bitrate=N/A speed=20.1x    frame=31799 fps=482 q=-0.0 size=N/A time=00:22:06.28 bitrate=N/A speed=20.1x    frame=32008 fps=481 q=-0.0 size=N/A time=00:22:15.00 bitrate=N/A speed=20.1x    frame=32212 fps=480 q=-0.0 size=N/A time=00:22:23.50 bitrate=N/A speed=  20x    frame=32410 fps=480 q=-0.0 size=N/A time=00:22:31.76 bitrate=N/A speed=  20x    frame=32605 fps=479 q=-0.0 size=N/A time=00:22:39.90 bitrate=N/A speed=  20x    frame=32798 fps=478 q=-0.0 size=N/A time=00:22:47.94 bitrate=N/A speed=19.9x    frame=33000 fps=477 q=-0.0 size=N/A time=00:22:56.37 bitrate=N/A speed=19.9x    frame=33194 fps=477 q=-0.0 size=N/A time=00:23:04.46 bitrate=N/A speed=19.9x    frame=33402 fps=476 q=-0.0 size=N/A time=00:23:13.14 bitrate=N/A speed=19.9x    frame=33604 fps=476 q=-0.0 size=N/A time=00:23:21.56 bitrate=N/A speed=19.8x    frame=33807 fps=475 q=-0.0 size=N/A time=00:23:30.03 bitrate=N/A speed=19.8x    frame=34018 fps=475 q=-0.0 size=N/A time=00:23:38.83 bitrate=N/A speed=19.8x    [Parsed_ssim_10 @ 00000227e8fedec0] SSIM Y:0.995517 (23.484431) U:0.993556 (21.908200) V:0.993901 (22.147638) All:0.994921 (22.942138)
[out#0/null @ 00000227dbf7f5c0] video:14697KiB audio:267524KiB subtitle:0KiB other streams:0KiB global headers:0KiB muxing overhead: unknown
frame=34204 fps=474 q=-0.0 Lsize=N/A time=00:23:46.59 bitrate=N/A speed=19.8x    
